<mxfile host="app.diagrams.net" modified="2022-06-26T10:27:24.940Z" agent="5.0 (Macintosh; Intel Mac OS X 10_15_7) AppleWebKit/537.36 (KHTML, like Gecko) Chrome/103.0.0.0 Safari/537.36" etag="xGZiu08IuEG6bV5fGttP" version="17.4.6" type="github">
  <diagram id="Lw0GlEJloDxA10d08GFK" name="Page-1">
    <mxGraphModel dx="2061" dy="740" grid="1" gridSize="10" guides="1" tooltips="1" connect="1" arrows="1" fold="1" page="1" pageScale="1" pageWidth="827" pageHeight="1169" math="0" shadow="0">
      <root>
        <mxCell id="0" />
        <mxCell id="1" parent="0" />
        <mxCell id="b8pcnRYTxiagN0A5bjjj-1" value="" style="rounded=0;whiteSpace=wrap;html=1;" vertex="1" parent="1">
          <mxGeometry x="140" y="320" width="170" height="120" as="geometry" />
        </mxCell>
        <mxCell id="b8pcnRYTxiagN0A5bjjj-2" value="prometheus" style="shape=cylinder3;whiteSpace=wrap;html=1;boundedLbl=1;backgroundOutline=1;size=15;" vertex="1" parent="1">
          <mxGeometry x="384" y="200" width="96" height="90" as="geometry" />
        </mxCell>
        <mxCell id="b8pcnRYTxiagN0A5bjjj-8" style="edgeStyle=orthogonalEdgeStyle;rounded=0;orthogonalLoop=1;jettySize=auto;html=1;entryX=0.5;entryY=0;entryDx=0;entryDy=0;entryPerimeter=0;" edge="1" parent="1" source="b8pcnRYTxiagN0A5bjjj-3" target="b8pcnRYTxiagN0A5bjjj-2">
          <mxGeometry relative="1" as="geometry" />
        </mxCell>
        <mxCell id="b8pcnRYTxiagN0A5bjjj-13" style="edgeStyle=orthogonalEdgeStyle;rounded=0;orthogonalLoop=1;jettySize=auto;html=1;entryX=0.5;entryY=0;entryDx=0;entryDy=0;" edge="1" parent="1" source="b8pcnRYTxiagN0A5bjjj-3" target="b8pcnRYTxiagN0A5bjjj-7">
          <mxGeometry relative="1" as="geometry" />
        </mxCell>
        <mxCell id="b8pcnRYTxiagN0A5bjjj-3" value="监控报警平台" style="rounded=1;whiteSpace=wrap;html=1;" vertex="1" parent="1">
          <mxGeometry x="160" y="130" width="120" height="60" as="geometry" />
        </mxCell>
        <mxCell id="b8pcnRYTxiagN0A5bjjj-6" style="edgeStyle=orthogonalEdgeStyle;rounded=0;orthogonalLoop=1;jettySize=auto;html=1;" edge="1" parent="1" source="b8pcnRYTxiagN0A5bjjj-4" target="b8pcnRYTxiagN0A5bjjj-2">
          <mxGeometry relative="1" as="geometry" />
        </mxCell>
        <mxCell id="b8pcnRYTxiagN0A5bjjj-4" value="agent" style="rounded=0;whiteSpace=wrap;html=1;" vertex="1" parent="1">
          <mxGeometry x="165" y="330" width="120" height="60" as="geometry" />
        </mxCell>
        <mxCell id="b8pcnRYTxiagN0A5bjjj-9" style="edgeStyle=orthogonalEdgeStyle;rounded=0;orthogonalLoop=1;jettySize=auto;html=1;entryX=0;entryY=0.5;entryDx=0;entryDy=0;" edge="1" parent="1" source="b8pcnRYTxiagN0A5bjjj-7" target="b8pcnRYTxiagN0A5bjjj-1">
          <mxGeometry relative="1" as="geometry" />
        </mxCell>
        <mxCell id="b8pcnRYTxiagN0A5bjjj-7" value="bos( 统一检索平台)" style="rounded=1;whiteSpace=wrap;html=1;" vertex="1" parent="1">
          <mxGeometry x="-70" y="280" width="120" height="60" as="geometry" />
        </mxCell>
        <mxCell id="b8pcnRYTxiagN0A5bjjj-10" value="提交flink任务" style="text;html=1;align=center;verticalAlign=middle;resizable=0;points=[];autosize=1;strokeColor=none;fillColor=none;" vertex="1" parent="1">
          <mxGeometry x="50" y="290" width="80" height="20" as="geometry" />
        </mxCell>
        <mxCell id="b8pcnRYTxiagN0A5bjjj-11" value="agent采集flink日志" style="text;html=1;align=center;verticalAlign=middle;resizable=0;points=[];autosize=1;strokeColor=none;fillColor=none;" vertex="1" parent="1">
          <mxGeometry x="315" y="330" width="110" height="20" as="geometry" />
        </mxCell>
        <mxCell id="b8pcnRYTxiagN0A5bjjj-12" value="指标数据查询展示和报警" style="text;html=1;align=center;verticalAlign=middle;resizable=0;points=[];autosize=1;strokeColor=none;fillColor=none;" vertex="1" parent="1">
          <mxGeometry x="280" y="140" width="150" height="20" as="geometry" />
        </mxCell>
        <mxCell id="b8pcnRYTxiagN0A5bjjj-14" value="监控元数据" style="text;html=1;align=center;verticalAlign=middle;resizable=0;points=[];autosize=1;strokeColor=none;fillColor=none;" vertex="1" parent="1">
          <mxGeometry x="10" y="140" width="80" height="20" as="geometry" />
        </mxCell>
        <mxCell id="b8pcnRYTxiagN0A5bjjj-15" value="flink cluster" style="text;html=1;strokeColor=none;fillColor=none;align=center;verticalAlign=middle;whiteSpace=wrap;rounded=0;" vertex="1" parent="1">
          <mxGeometry x="180" y="400" width="75" height="30" as="geometry" />
        </mxCell>
      </root>
    </mxGraphModel>
  </diagram>
</mxfile>
